:version 1.10
:name ASF
:units
  mass 1
  length 1
  angle deg
:documentation
  ASF file generated by Kaydara
:root
  axis xyz
  order  tx ty tz rx ry rz
  position 0 0 0
  orientation 0 0 0
:bonedata
  begin
    id 1
    name RightUpLegDummy
    direction -1 2.30186e-007 8.31532e-007
    length 4.04083
    axis 0 0 0 xyz
  end
  begin
    id 2
    name RightUpLeg
    direction -0.000919234 -0.999985 0.00544864
    length 17.4221
    axis -3.80308 -0.00076134 -0.0523649 xyz
    dof rx ry rz
  end
  begin
    id 3
    name RightLeg
    direction -0.000919271 -0.999984 -0.00555045
    length 17.1239
    axis 4.00314 0.0181274 -0.183583 xyz
    dof rx ry rz
  end
  begin
    id 4
    name RightFoot
    direction -2.57843e-005 -4.04509e-007 1
    length 6.72091
    axis 8.18909e-005 -0.122003 -0.403008 xyz
    dof rx ry rz
  end
  begin
    id 5
    name RightToes
    direction 0.00116825 -0.014069 0.9999
    length 3.85082
    axis 0.000514414 0.540638 -0.356797 xyz
    dof rx ry rz
  end
  begin
    id 6
    name SpineDummy
    direction 0.0168869 0.966876 -0.254689
    length 6.99894
    axis 0 0 0 xyz
  end
  begin
    id 7
    name Spine
    direction -0.0132008 0.999903 0.00446247
    length 11.1999
    axis -0.00148109 0.00725429 0.756411 xyz
    dof rx ry rz
  end
  begin
    id 8
    name Spine1
    direction 0 0 0
    length 0
    axis -0.000934958 0.0245693 1.46543 xyz
    dof rx ry rz
  end
  begin
    id 9
    name HEadDummy
    direction -0.0255732 0.999672 0.00128215
    length 3.43865
    axis -0.000934958 0.0245693 1.46543 xyz
  end
  begin
    id 10
    name HEad
    direction -0.0472656 0.980052 0.19304
    length 5.12695
    axis -0.000934954 0.0245693 1.46543 xyz
    dof rx ry rz
  end
  begin
    id 11
    name LeftShoulder1Dummy
    direction 0.953098 0.301717 -0.023914
    length 3.68488
    axis -0.000934958 0.0245693 1.46543 xyz
  end
  begin
    id 12
    name LeftShoulder1
    direction 0.962466 0.271167 0.0112566
    length 3.13809
    axis -0.000934958 0.0245693 1.46543 xyz
    dof rx ry rz
  end
  begin
    id 13
    name LeftArm
    direction 0.999943 0.00455037 -0.00961766
    length 11.3419
    axis -23.1648 0.685459 1.22814 xyz
    dof rx ry rz
  end
  begin
    id 14
    name LeftForeArm
    direction 0.999332 0.0131969 0.0340885
    length 8.70632
    axis -9.90633 0.618216 0.0826942 xyz
    dof rx ry rz
  end
  begin
    id 15
    name LeftHand
    direction 0.994373 -0.0366703 0.0993905
    length 5.32135
    axis 0.00675269 0.680415 0.445699 xyz
    dof rx ry rz
  end
  begin
    id 16
    name RightShoulderDummy
    direction -0.967298 0.252589 -0.0230903
    length 3.68488
    axis -0.000934958 0.0245693 1.46543 xyz
  end
  begin
    id 17
    name RightShoulder
    direction -0.975062 0.221602 0.0120823
    length 3.13809
    axis 0.216257 0.0246515 1.45863 xyz
    dof rx ry rz
  end
  begin
    id 18
    name RightArm
    direction -0.99886 -0.00851186 -0.0469687
    length 10.3947
    axis -23.196 0.23503 -0.532632 xyz
    dof rx ry rz
  end
  begin
    id 19
    name RightForeArm
    direction -0.99909 0.00114866 0.0426317
    length 8.68355
    axis -9.91764 -0.134943 0.610517 xyz
    dof rx ry rz
  end
  begin
    id 20
    name RightHand
    direction -0.992888 -0.0489538 0.10852
    length 5.28593
    axis -0.00275396 -0.197403 0.246414 xyz
    dof rx ry rz
  end
  begin
    id 21
    name LeftUpLegDummy
    direction 1 -2.30186e-007 -8.31532e-007
    length 4.04083
    axis 0 0 0 xyz
  end
  begin
    id 22
    name LeftUpLeg
    direction -0.000920097 -1 2.79241e-006
    length 17.4221
    axis -3.48782 0.00143434 -0.0532288 xyz
    dof rx ry rz
  end
  begin
    id 23
    name LeftLeg
    direction -0.000920097 -1 2.7912e-006
    length 17.1239
    axis 3.68162 -0.00806512 -0.0529896 xyz
    dof rx ry rz
  end
  begin
    id 24
    name LeftFoot
    direction -2.57845e-005 -3.987e-007 1
    length 6.72091
    axis 3.02372e-005 -0.00147829 -0.214229 xyz
    dof rx ry rz
  end
  begin
    id 25
    name LeftToes
    direction 0.00813577 -0.00488255 0.999955
    length 3.85048
    axis 3.89895e-005 -0.0014783 -0.214229 xyz
    dof rx ry rz
  end
:hierarchy
  begin
    root RightUpLegDummy SpineDummy LeftUpLegDummy
    RightUpLegDummy RightUpLeg
    RightUpLeg RightLeg
    RightLeg RightFoot
    RightFoot RightToes
    SpineDummy Spine
    Spine Spine1
    Spine1 HEadDummy LeftShoulder1Dummy RightShoulderDummy
    HEadDummy HEad
    LeftShoulder1Dummy LeftShoulder1
    LeftShoulder1 LeftArm
    LeftArm LeftForeArm
    LeftForeArm LeftHand
    RightShoulderDummy RightShoulder
    RightShoulder RightArm
    RightArm RightForeArm
    RightForeArm RightHand
    LeftUpLegDummy LeftUpLeg
    LeftUpLeg LeftLeg
    LeftLeg LeftFoot
    LeftFoot LeftToes
  end

:SAMPLES-PER-SECOND 30
:FULLY-SPECIFIED
:DEGREES
110
root  -6.4766 34.759 -32.801 -173.079 -23.9931 176.879
RightUpLeg  -0.499236 -30.2454 -9.75716
RightLeg  9.23112 -14.4474 -1.38245
RightFoot  4.55642 0.0648018 -0.987151
RightToes  -27.3302 -0.130641 -0.234632
Spine  -2.78392 5.16762 -2.09705
Spine1  -5.63867 10.0584 -3.65851
HEad  -64.5425 -8.16959 12.4974
LeftShoulder1  -1.94126e-019 -3.10601e-018 -2.51263e-017
LeftArm  0.378992 28.345 -71.367
LeftForeArm  28.8662 -21.081 -3.51121
LeftHand  -0.445099 -1.29064 7.8894
RightShoulder  -4.96962e-017 0 -2.36833e-017
RightArm  14.1688 44.8863 91.9986
RightForeArm  40.3472 60.1664 15.9616
RightHand  0.0929351 -5.77371 -28.2967
LeftUpLeg  -10.2742 -16.5939 2.68934
LeftLeg  6.97366 8.33037 0.476464
LeftFoot  9.90343 -0.124011 1.57062
LeftToes  -25.2736 2.25955e-006 -3.67304e-008
111
root  -6.45189 34.7734 -32.7992 -172.935 -23.1934 176.937
RightUpLeg  -0.83313 -30.0533 -9.55558
RightLeg  8.99773 -13.9088 -1.2755
RightFoot  4.65938 0.0645791 -0.973656
RightToes  -27.487 -0.130264 -0.234195
Spine  -2.89784 5.31758 -2.14668
Spine1  -5.86925 10.3323 -3.78066
HEad  -65.3233 -8.33381 13.5952
LeftShoulder1  -1.94126e-019 -3.10601e-018 -2.51263e-017
LeftArm  0.347258 28.1358 -71.645
LeftForeArm  30.2758 -18.9391 -3.25044
LeftHand  -0.456765 -1.57646 7.78226
RightShoulder  -4.96962e-017 0 -2.36833e-017
RightArm  16.5528 46.7818 94.6226
RightForeArm  37.5772 49.9946 10.5449
RightHand  0.0614924 -5.76303 -21.7829
LeftUpLeg  -9.99072 -16.1084 2.75338
LeftLeg  6.28529 8.65728 0.391271
LeftFoot  10.1344 -0.129387 1.65948
LeftToes  -25.179 2.25955e-006 -3.67304e-008
112
root  -6.4329 34.785 -32.8086 -172.875 -22.4005 177.017
RightUpLeg  -1.02197 -29.7237 -9.37523
RightLeg  8.68346 -13.5268 -1.16713
RightFoot  4.82455 0.066195 -0.985691
RightToes  -27.4727 -0.129893 -0.233812
Spine  -3.02091 5.61052 -2.24554
Spine1  -6.12945 10.8907 -4.01285
HEad  -65.9709 -9.16761 14.9837
LeftShoulder1  -1.94126e-019 -3.10601e-018 -2.51263e-017
LeftArm  -0.641452 27.1112 -72.0693
LeftForeArm  32.4001 -15.957 -2.83054
LeftHand  -0.467308 -1.47213 8.07096
RightShoulder  -4.96962e-017 0 -2.36833e-017
RightArm  17.032 48.3271 96.6089
RightForeArm  30.2451 40.6416 7.70832
RightHand  0.0287042 -6.31071 -6.99557
LeftUpLeg  -9.62299 -15.6811 2.80839
LeftLeg  5.6389 9.06198 0.307577
LeftFoot  10.3224 -0.135493 1.75949
LeftToes  -25.2161 2.25955e-006 -3.67304e-008
113
root  -6.4326 34.7916 -32.8224 -172.885 -22.1413 177.065
RightUpLeg  -0.971641 -29.6399 -9.3296
RightLeg  8.45572 -13.3614 -1.10016
RightFoot  4.98317 0.068919 -1.01329
RightToes  -27.6715 -0.129533 -0.233495
Spine  -3.0963 5.81535 -2.37789
Spine1  -6.29122 11.2712 -4.30072
HEad  -65.9921 -10.3534 16.0922
LeftShoulder1  -1.94126e-019 -3.10601e-018 -2.51263e-017
LeftArm  -2.29699 25.9391 -72.3744
LeftForeArm  33.5683 -13.8773 -2.47103
LeftHand  -0.470288 -1.16812 8.47338
RightShoulder  -4.96962e-017 0 -2.36833e-017
RightArm  15.4178 48.548 96.5146
RightForeArm  28.9238 36.3717 6.56719
RightHand  -0.0695304 -6.57149 2.9665
LeftUpLeg  -9.43889 -15.5107 2.83294
LeftLeg  5.3843 9.14524 0.269916
LeftFoot  10.3687 -0.13647 1.77959
LeftToes  -25.1064 2.25955e-006 -3.67304e-008
114
root  -6.43247 34.7938 -32.8376 -172.916 -22.3457 177.05
RightUpLeg  -0.794308 -29.707 -9.3666
RightLeg  8.34492 -13.4948 -1.08488
RightFoot  5.00303 0.0708749 -1.03011
RightToes  -27.5072 -0.129187 -0.233256
Spine  -3.10728 5.74399 -2.50358
Spine1  -6.31527 11.1181 -4.55018
HEad  -65.097 -11.1905 16.6733
LeftShoulder1  -1.94126e-019 -3.10601e-018 -2.51263e-017
LeftArm  -4.54475 25.5309 -72.447
LeftForeArm  33.3842 -13.6029 -2.42021
LeftHand  -0.475839 -0.837064 8.99992
RightShoulder  -4.96962e-017 0 -2.36833e-017
RightArm  17.1938 47.7767 94.2614
RightForeArm  36.9453 39.2938 6.89875
RightHand  0.078551 -1.95529 3.06663
LeftUpLeg  -9.55364 -15.4721 2.82938
LeftLeg  5.6658 8.88915 0.305901
LeftFoot  10.3032 -0.13245 1.72185
LeftToes  -25.3494 2.25955e-006 -3.67304e-008
